<?xml version="1.0" standalone="no"?>
<!DOCTYPE svg PUBLIC "-//W3C//DTD SVG 20010904//EN"
 "http://www.w3.org/TR/2001/REC-SVG-20010904/DTD/svg10.dtd">
<svg version="1.0" xmlns="http://www.w3.org/2000/svg"
 width="348.000000pt" height="348.000000pt" viewBox="0 0 348.000000 348.000000"
 preserveAspectRatio="xMidYMid meet">

<g transform="translate(0.000000,348.000000) scale(0.100000,-0.100000)"
fill="#000000" stroke="none">
<path d="M1515 3250 c-173 -27 -334 -78 -458 -144 -73 -38 -156 -86 -172 -98
-5 -4 -39 -29 -75 -55 -130 -96 -294 -279 -384 -433 -350 -594 -257 -1357 224
-1841 233 -234 467 -363 785 -431 145 -30 437 -33 582 -5 236 46 440 136 635
280 242 179 431 439 528 726 52 154 71 259 77 442 9 274 -30 469 -142 704
-187 392 -536 692 -941 808 -217 63 -456 80 -659 47z"/>
</g>
</svg>
